<?xml version="1.0" encoding="utf-8"?>
<!-- Generator: Adobe Illustrator 24.2.0, SVG Export Plug-In . SVG Version: 6.00 Build 0)  -->
<svg version="1.1" id="Capa_1" xmlns="http://www.w3.org/2000/svg" xmlns:xlink="http://www.w3.org/1999/xlink" x="0px" y="0px"
	 viewBox="0 0 512 358" style="enable-background:new 0 0 512 358;" xml:space="preserve">
<style type="text/css">
	.st0{fill:#FFFFFF;}
</style>
<g>
	<polygon class="st0" points="47.5,289.3 60.8,254.2 72.4,254.2 51.5,305 43.4,305 22.3,254.2 34.1,254.2 	"/>
	<path class="st0" d="M68.9,286.2c0-5.5,1.9-10.2,5.6-14c3.8-3.9,8.6-5.8,14.4-5.8c5.8,0,10.6,1.9,14.4,5.8c3.8,3.8,5.6,8.4,5.6,14
		c0,5.6-1.9,10.3-5.6,14c-3.8,3.8-8.6,5.7-14.4,5.7c-5.8,0-10.6-1.9-14.4-5.7C70.7,296.5,68.9,291.8,68.9,286.2 M81.5,293.8
		c2,2.1,4.4,3.1,7.4,3.1c2.9,0,5.3-1,7.4-3.1c2-2.2,3-4.7,3-7.6c0-2.9-1-5.5-3-7.6c-2-2.1-4.5-3.1-7.4-3.1c-3,0-5.5,1-7.4,3.1
		c-2,2-3,4.5-3,7.6C78.6,289.2,79.5,291.7,81.5,293.8"/>
	<path class="st0" d="M133,305.8c-5.8,0-10.5-1.8-14.3-5.5c-3.7-3.6-5.6-8.3-5.6-14.1c0-5.8,1.9-10.5,5.6-14.1
		c3.8-3.7,8.6-5.6,14.5-5.6c3.9,0,7.3,0.9,10.5,2.8c3.1,1.8,5.5,4.4,7,7.7l-7.8,4.3c-2.3-3.8-5.5-5.7-9.6-5.7c-3.1,0-5.7,1-7.6,3.1
		c-2,2-3,4.5-3,7.6c0,3.1,1,5.7,3,7.7c2,2,4.5,3,7.5,3c2,0,3.9-0.5,5.6-1.6c1.8-1.1,3.1-2.4,3.9-4.1l7.8,4.6c-1.6,3-4,5.4-7.1,7.2
		C140.4,304.9,136.9,305.8,133,305.8"/>
	<path class="st0" d="M184.3,272v-4.5h9.2V305h-9.2v-4.3c-3.2,3.5-7.2,5.2-12,5.2c-5.4,0-9.9-1.9-13.3-5.6
		c-3.5-3.8-5.2-8.5-5.2-14.2c0-5.6,1.8-10.3,5.3-14c3.5-3.7,8-5.6,13.3-5.6C177,266.5,181,268.3,184.3,272 M184.4,286.2
		c0-2.9-1-5.5-3-7.6c-2-2.1-4.5-3.2-7.5-3.2c-3.1,0-5.6,1.1-7.6,3.2c-1.9,2.1-2.9,4.7-2.9,7.6c0,3,1,5.6,3,7.7
		c2,2.1,4.5,3.2,7.5,3.2c3,0,5.5-1.1,7.5-3.2C183.4,291.7,184.4,289.2,184.4,286.2"/>
	<path class="st0" d="M219.4,305.8c-5.8,0-10.5-1.8-14.3-5.5c-3.7-3.6-5.6-8.3-5.6-14.1c0-5.8,1.9-10.5,5.6-14.1
		c3.8-3.7,8.6-5.6,14.5-5.6c3.9,0,7.3,0.9,10.5,2.8c3.1,1.8,5.5,4.4,7,7.7l-7.8,4.3c-2.3-3.8-5.5-5.7-9.6-5.7c-3.1,0-5.7,1-7.6,3.1
		c-2,2-3,4.5-3,7.6c0,3.1,1,5.7,3,7.7c2,2,4.5,3,7.5,3c2,0,3.8-0.5,5.6-1.6c1.8-1.1,3.1-2.4,3.9-4.1l7.8,4.6c-1.6,3-4,5.4-7.1,7.2
		C226.8,304.9,223.3,305.8,219.4,305.8"/>
	<path class="st0" d="M253.3,257.3c0,1.7-0.6,3.1-1.7,4.3c-1.1,1.1-2.6,1.7-4.3,1.7c-1.7,0-3.1-0.6-4.3-1.7
		c-1.1-1.1-1.7-2.6-1.7-4.3c0-1.7,0.6-3.1,1.7-4.2c1.1-1.1,2.6-1.7,4.3-1.7c1.7,0,3.1,0.6,4.3,1.7
		C252.7,254.2,253.3,255.6,253.3,257.3 M252.2,305h-9.7v-37.5h9.7V305z"/>
	<path class="st0" d="M258.1,286.2c0-5.5,1.9-10.2,5.6-14c3.8-3.9,8.6-5.8,14.4-5.8c5.8,0,10.6,1.9,14.4,5.8c3.8,3.8,5.6,8.4,5.6,14
		c0,5.6-1.9,10.3-5.6,14c-3.8,3.8-8.6,5.7-14.4,5.7c-5.8,0-10.6-1.9-14.4-5.7C260,296.5,258.1,291.8,258.1,286.2 M270.8,293.8
		c2,2.1,4.4,3.1,7.4,3.1c2.9,0,5.3-1,7.4-3.1c2-2.2,3-4.7,3-7.6c0-2.9-1-5.5-3-7.6c-2-2.1-4.5-3.1-7.4-3.1c-3,0-5.5,1-7.4,3.1
		c-2,2-3,4.5-3,7.6C267.8,289.2,268.8,291.7,270.8,293.8"/>
	<path class="st0" d="M314.1,305h-9.7v-37.5h9.5v5.2c1-1.9,2.6-3.4,4.7-4.5c2.1-1.1,4.5-1.7,7.1-1.7c4.1,0,7.5,1.4,10.4,4.1
		c2.8,2.7,4.3,6.6,4.3,11.6V305h-9.7v-20.3c0-2.9-0.7-5.2-2.1-6.8c-1.4-1.6-3.3-2.4-5.8-2.4c-2.6,0-4.6,0.9-6.2,2.6
		c-1.6,1.8-2.4,4-2.4,6.8V305z"/>
	<path class="st0" d="M376.5,272v-4.5h9.2V305h-9.2v-4.3c-3.2,3.5-7.2,5.2-12,5.2c-5.4,0-9.9-1.9-13.3-5.6
		c-3.5-3.8-5.2-8.5-5.2-14.2c0-5.6,1.8-10.3,5.3-14c3.5-3.7,8-5.6,13.3-5.6C369.2,266.5,373.2,268.3,376.5,272 M376.6,286.2
		c0-2.9-1-5.5-3-7.6c-2-2.1-4.5-3.2-7.5-3.2c-3.1,0-5.6,1.1-7.6,3.2c-1.9,2.1-2.9,4.7-2.9,7.6c0,3,1,5.6,3,7.7
		c2,2.1,4.5,3.2,7.5,3.2c3,0,5.5-1.1,7.5-3.2C375.6,291.7,376.6,289.2,376.6,286.2"/>
	<path class="st0" d="M403.4,305h-9.7v-37.5h9.3v5c2.2-4,5.7-6.1,10.3-6.1c1.5,0,3,0.3,4.5,0.8l-0.8,9.3c-1.6-0.5-3.1-0.8-4.5-0.8
		c-2.8,0-5.1,0.9-6.7,2.9c-1.6,1.9-2.4,4.7-2.4,8.5V305z"/>
	<path class="st0" d="M447.1,295.1l2.9,7.6c-3.1,2.1-6.8,3.1-11.1,3.1c-4.3,0-7.6-1.2-9.8-3.7c-2.2-2.5-3.3-6.2-3.3-11v-15.5h-6.1
		v-8.1h6.2v-13.3h9.6v13.3h12.4v8.1h-12.4v14.9c0,4.4,1.8,6.6,5.3,6.6C442.7,297.1,444.8,296.4,447.1,295.1"/>
	<path class="st0" d="M489.7,285.4c0,1.1-0.1,2.6-0.3,4.3h-28.1c1.4,5.3,5,8,10.9,8c4.4,0,8.4-1.3,12.1-3.8l3.9,6.8
		c-4.8,3.4-10.2,5.2-16.4,5.2c-6.6,0-11.6-1.9-15.1-5.7c-3.5-3.8-5.2-8.4-5.2-13.9c0-5.7,1.8-10.4,5.4-14.1
		c3.6-3.7,8.3-5.6,14.1-5.6c5.5,0,9.9,1.7,13.5,5.1C487.9,275,489.7,279.6,489.7,285.4 M470.9,274.6c-2.4,0-4.5,0.7-6.2,2.1
		c-1.7,1.4-2.9,3.3-3.5,5.7h19c-0.5-2.4-1.5-4.3-3.2-5.7C475.5,275.3,473.4,274.6,470.9,274.6"/>
	<path class="st0" d="M310.4,105.2c11.5,6.3,15.4,20.4,8.8,31.4l-42.9,71.2c-6.6,11-21.3,14.8-32.8,8.4
		c-11.5-6.3-15.4-20.4-8.8-31.4l42.9-71.2C284.2,102.7,299,98.9,310.4,105.2 M313.2,100.7c-14.1-7.8-32.2-3.1-40.3,10.3l-42.9,71.2
		c-8.1,13.5-3.3,30.8,10.8,38.6c14.1,7.8,32.2,3.1,40.3-10.3l42.9-71.2C332.1,125.8,327.2,108.4,313.2,100.7"/>
	<path class="st0" d="M304.2,115.6c6.2,3.4,8.3,11.1,4.8,17L267.1,202c-3.6,5.9-11.6,8-17.8,4.6c-6.2-3.4-8.3-11.1-4.8-17l41.8-69.4
		C290,114.2,298,112.2,304.2,115.6 M306.9,111c-8.8-4.9-20.2-2-25.3,6.5l-41.8,69.4c-5.1,8.4-2,19.3,6.8,24.2
		c8.8,4.9,20.2,2,25.3-6.5l41.8-69.4C318.8,126.8,315.7,115.9,306.9,111"/>
	<path class="st0" d="M298.1,125.7c1.3,0.7,1.7,2.3,1,3.5L258.8,196c-0.7,1.2-2.4,1.6-3.7,0.9c-1.3-0.7-1.7-2.3-1-3.5l40.3-66.8
		C295.2,125.4,296.8,125,298.1,125.7 M300.9,121.1c-3.9-2.2-8.9-0.9-11.2,2.9l-40.3,66.8c-2.2,3.7-0.9,8.6,3,10.7
		c3.9,2.2,8.9,0.9,11.2-2.9l40.3-66.8C306.1,128.1,304.8,123.3,300.9,121.1"/>
	<path class="st0" d="M270.5,221L270.5,221c-14.1,7.8-32.2,3.1-40.3-10.3l-42.9-71.2c-8.1-13.5-3.3-30.8,10.8-38.6
		c14.1-7.8,32.2-3.1,40.3,10.3l42.9,71.2C289.5,195.8,284.6,213.2,270.5,221"/>
	<path class="st0" d="M279.1,75.7c0,13.1-10.6,23.6-23.6,23.6c-13.1,0-23.6-10.6-23.6-23.6c0-13.1,10.6-23.6,23.6-23.6
		C268.5,52.1,279.1,62.7,279.1,75.7"/>
</g>
</svg>
